<?xml version="1.0" encoding="UTF-8" standalone="no"?>
<!DOCTYPE svg PUBLIC "-//W3C//DTD SVG 1.0//EN"
 "http://www.w3.org/TR/2001/REC-SVG-20010904/DTD/svg10.dtd" [
 <!ATTLIST svg xmlns:xlink CDATA #FIXED "http://www.w3.org/1999/xlink">
]>
<!-- Generated by Graphviz version 2.20.2 (Thu Jun 26 05:15:13 UTC 2008)
     For user: (mbergins) Matthew Berginski -->
<!-- Title: flow Pages: 1 -->
<svg width="232pt" height="332pt"
 viewBox="0.00 0.00 232.00 332.00" xmlns="http://www.w3.org/2000/svg" xmlns:xlink="http://www.w3.org/1999/xlink">
<g id="graph0" class="graph" transform="scale(1 1) rotate(0) translate(4 328)">
<title>flow</title>
<polygon style="fill:white;stroke:white;" points="-4,4 -4,-328 228,-328 228,4 -4,4"/>
<!-- init -->
<g id="node1" class="node"><title>init</title>
<polygon style="fill:none;stroke:black;" points="204,-324 84,-324 84,-288 204,-288 204,-324"/>
<text text-anchor="middle" x="144" y="-301.4" style="font-family:Times New Roman;font-size:14.00;">Initialize Lineages</text>
</g>
<!-- track -->
<g id="node2" class="node"><title>track</title>
<polygon style="fill:none;stroke:black;" points="214,-252 74,-252 74,-216 214,-216 214,-252"/>
<text text-anchor="middle" x="144" y="-229.4" style="font-family:Times New Roman;font-size:14.00;">Track Live Adhesions</text>
</g>
<!-- init&#45;&gt;track -->
<g id="edge3" class="edge"><title>init&#45;&gt;track</title>
<path style="fill:none;stroke:black;" d="M144,-288C144,-280 144,-271 144,-262"/>
<polygon style="fill:black;stroke:black;" points="147.5,-262 144,-252 140.5,-262 147.5,-262"/>
</g>
<!-- mdevents -->
<g id="node3" class="node"><title>mdevents</title>
<polygon style="fill:none;stroke:black;" points="174,-180 8.52651e-14,-180 0,-144 174,-144 174,-180"/>
<text text-anchor="middle" x="87" y="-157.4" style="font-family:Times New Roman;font-size:14.00;">Detect Merge/Death Events</text>
</g>
<!-- track&#45;&gt;mdevents -->
<g id="edge4" class="edge"><title>track&#45;&gt;mdevents</title>
<path style="fill:none;stroke:black;" d="M130,-216C123,-207 115,-197 107,-188"/>
<polygon style="fill:black;stroke:black;" points="109.8,-185.9 101,-180 104.2,-190.1 109.8,-185.9"/>
</g>
<!-- birth -->
<g id="node4" class="node"><title>birth</title>
<polygon style="fill:none;stroke:black;" points="224,-108 64,-108 64,-72 224,-72 224,-108"/>
<text text-anchor="middle" x="144" y="-85.4" style="font-family:Times New Roman;font-size:14.00;">Start New Lineages/Birth</text>
</g>
<!-- mdevents&#45;&gt;birth -->
<g id="edge5" class="edge"><title>mdevents&#45;&gt;birth</title>
<path style="fill:none;stroke:black;" d="M101,-144C108,-135 116,-125 124,-116"/>
<polygon style="fill:black;stroke:black;" points="126.8,-118.1 130,-108 121.2,-113.9 126.8,-118.1"/>
</g>
<!-- birth&#45;&gt;track -->
<g id="edge6" class="edge"><title>birth&#45;&gt;track</title>
<path style="fill:none;stroke:black;" d="M161,-108C169,-118 178,-130 183,-144 187,-159 187,-164 183,-180 179,-190 173,-200 167,-208"/>
<polygon style="fill:black;stroke:black;" points="164.2,-205.9 161,-216 169.8,-210.1 164.2,-205.9"/>
</g>
<!-- analysis -->
<g id="node5" class="node"><title>analysis</title>
<polygon style="fill:none;stroke:black;" points="201,-36 87,-36 87,-1.77636e-14 201,-3.55271e-15 201,-36"/>
<text text-anchor="middle" x="144" y="-13.4" style="font-family:Times New Roman;font-size:14.00;">Lineage Analysis</text>
</g>
<!-- birth&#45;&gt;analysis -->
<g id="edge7" class="edge"><title>birth&#45;&gt;analysis</title>
<path style="fill:none;stroke:black;" d="M144,-72C144,-64 144,-55 144,-46"/>
<polygon style="fill:black;stroke:black;" points="147.5,-46 144,-36 140.5,-46 147.5,-46"/>
</g>
</g>
</svg>
